Genre:
Comedy | Crime | Drama | Musical


Chicago - (Richard Gere - Renee Zellweger)(2002)Dvd Rip [Divx-ENG]


Starring

Taye Diggs ... Bandleader
Renée Zellweger ... Roxie Hart
Cliff Saunders ... Stage Manager
Catherine Zeta-Jones ... Velma Kelly
Richard Gere ... Billy Flynn
Queen Latifah
... Matron Mama Morton
John C. Reilly ... Amos Hart
Dominic West ... Fred Casely
Christine Baranski ... Mary Sunshine
Jayne Eastwood ... Mrs. Borusewicz
Bruce Beaton ... Police Photographer
Roman Podhora ... Sergeant Fogarty
Colm Feore ... Harrison
Rob Smith ... Newspaper Photographer
Sean Wayne Doyle ... Reporter

General
Complete name : Chicago.avi
Format : AVI
Format/Info : Audio Video Interleave
File size : 1.37 GiB
Duration : 1h 48mn
Overall bit rate : 1 799 Kbps
Writing application : VirtualDubMod 1.5.4.1 (build 2178/release)
Writing library : VirtualDubMod build 2178/release

Video
ID : 0
Format : MPEG-4 Visual
Format settings, BVOP : Yes
Format settings, QPel : No
Format settings, GMC : No warppoints
Format settings, Matrix : Default (H.263)
Muxing mode : Packed bitstream
Codec ID : DX50
Codec ID/Hint : DivX 5
Duration : 1h 48mn
Bit rate : 1 344 Kbps
Width : 704 pixels
Height : 384 pixels
Display aspect ratio : 16/9
Frame rate : 25.000 fps
Resolution : 24 bits
Colorimetry : 4:2:0
Scan type : Progressive
Bits/(Pixel*Frame) : 0.199
Stream size : 1.02 GiB (75%)
Writing library : DivX 6.8.5

Audio
ID : 1
Format : AC-3
Format/Info : Audio Coding 3
Codec ID : 2000
Duration : 1h 48mn
Bit rate mode : Constant
Bit rate : 448 Kbps
Channel(s) : 6 channels
Channel positions : Front: L C R, Surround: L R, LFE
Sampling rate : 48.0 KHz
Stream size : 349 MiB (25%)
Alignment : Split accross interleaves
Interleave, duration : 96 ms (2.40 video frames)
Interleave, preload duration : 96 ms
Language : English


IMDB Rating =

7.3/10

76,759 votes


Link to IMDB HERE

 
http://www.imdb.com/title/tt0299658/

Plot

Murderesses Velma Kelly (a chanteuse and tease who killed her husband and sister after finding them in bed together) and Roxie Hart (who killed her boyfriend when she discovered he wasn't going to make her a star) find themselves on death row together and fight for the fame that will keep them from the gallows in 1920s Chicago.

Review From IMDB

One of the very Broadway crossovers in recent memory to actually do its job and entertain, and boy, does it ever! Chicago sucks you in at minute one and you don't really come up for air until a half hour has passed. Now thats a good movie. Musicals, theater etc are hardly my cup of tea, and Hollywood's opium dream renditions are even less in my scope of enjoyment. Why Chicago works where most of them have flopped utterly, I am not sure but would have to bet its down to direction. Chicago's song and dance segments are cut MTV style, but, Marshall seems to have almost perfected this technique to somehow capture the in-theater dramatic 'zowie' feeling that almost never makes it from stage to screen. While many argue Chicago owe its success at the Oscars to the drubbing Moulin Rouge took (quite deservedly) the year before, I happen to disagree and believe that for once the Academy actually got it right. The cast is fantastic. Sure you can nitpick about Gere being too nasally and too Gere, and maybe Zellwegger's drunken bridesmaid dancing could have used a couple more takes, but the final product even with those bizarre ingredients is one of the most enjoyable experiences to come out of Hollywood, maybe ever?
